<svg xmlns="http://www.w3.org/2000/svg" viewBox="0 0 750 500"><g id="freepik--background-complete--inject-213"><rect x="38.15" y="262.49" width="100.66" height="80.47" transform="translate(-46.87 17.86) rotate(-9.12)" style="fill:#f5f5f5"></rect><path d="M131.79,255l-.48.09-1.39.24-5.39.89-20.34,3.34L32.45,271.23l.22-.3c3.8,23.65,8.17,50.76,12.78,79.44h0l-.33-.24,99.39-15.91-.2.28c-3.79-23.93-6.93-43.77-9.13-57.65-1.08-6.94-1.94-12.38-2.52-16.11q-.43-2.79-.66-4.26c-.14-1-.21-1.47-.21-1.47s.1.47.26,1.41.4,2.37.7,4.2c.61,3.72,1.5,9.14,2.64,16.05,2.26,13.9,5.5,33.77,9.4,57.75l0,.24-.24,0-99.38,16-.28,0,0-.28h0c-4.6-28.69-8.94-55.8-12.73-79.45l0-.26.26,0,71.95-11.42,20.3-3.19,5.35-.83,1.37-.21Z" style="fill:#e0e0e0"></path><rect x="41.62" y="267.56" width="93.59" height="70.34" transform="translate(-46.88 17.85) rotate(-9.12)" style="fill:#ebebeb"></rect><polygon points="47.79 344.88 73.13 296.52 97.46 320.32 108.7 303.71 140.19 330.04 47.79 344.88" style="fill:#e0e0e0"></polygon><path d="M100.76,286.66a7.37,7.37,0,1,1-8.44-6.1A7.37,7.37,0,0,1,100.76,286.66Z" style="fill:#e0e0e0"></path><path d="M598.52,367.92a34.8,34.8,0,0,0-14.94-5.14c-2.44-.25-5.1-.18-7.06,1.3a1.44,1.44,0,0,0-.73,1.29,1.61,1.61,0,0,0,.69.88c6.08,4.64,15.27,5.22,22,1.67" style="fill:#e0e0e0"></path><path d="M598.14,367.5a72.94,72.94,0,0,1-9.65-8.49,24.46,24.46,0,0,1-6-11.19,4.5,4.5,0,0,1,.48-3.74c7.69,6,13.73,13.77,15.22,23.42" style="fill:#e0e0e0"></path><path d="M598.44,367.86a34.8,34.8,0,0,1,.18-12.67,17.17,17.17,0,0,1,6.75-10.45c1.33,3.11.76,6.69-.18,9.93a48.41,48.41,0,0,1-6.69,14.09" style="fill:#e0e0e0"></path><path d="M606,381.37c-4.58.56-8.56,3-12,6.06a22.64,22.64,0,0,0-6.85,11.77c4.49-.28,8.3-3.45,11.06-7s4.67-7.44,7.71-10.76" style="fill:#e0e0e0"></path><path d="M607.62,383.53A29.55,29.55,0,0,1,611,355.58c2.61,9.28,1.65,19.75-3.41,27.95" style="fill:#e0e0e0"></path><path d="M617.58,395.39a21.39,21.39,0,0,0-20.43,11.76c-.25.51-.48,1.15-.14,1.6a1.52,1.52,0,0,0,1.36.4c4-.26,7.59-2.68,10.54-5.44s5.51-5.94,8.76-8.33" style="fill:#e0e0e0"></path><path d="M617.26,394.75a38.15,38.15,0,0,1-.38-21.26c.75-2.73,2-5.61,4.54-6.9a.7.7,0,0,1,1.13.39,12.85,12.85,0,0,1,1.07,6.1,38.05,38.05,0,0,1-1,6.17c-.79,3.77-1.22,7.83-3.29,11.08a22.75,22.75,0,0,0-1.31,2.43c-.39.83-.4,1.12-.75,1.78" style="fill:#e0e0e0"></path><path d="M643.63,398.68c-2-7.44.12-16.44,4.8-22.54.35-.45.8-.93,1.37-.87.86.08,1.08,1.23,1.05,2.09a40.8,40.8,0,0,1-7.22,21.32" style="fill:#e0e0e0"></path><path d="M646,400.3c9,2.35,19.38.07,26.89-5.47A21.76,21.76,0,0,0,658.34,393c-4.86,1.12-9.31,3.29-12.33,7.26" style="fill:#e0e0e0"></path><path d="M648,395.35c5.06-8.24,14.75-13.62,24.41-14.11-1.11,3.93-4.34,7-8,8.82s-7.71,2.65-11.72,3.43c-1.56.3-3.7.64-4.71,1.86" style="fill:#e0e0e0"></path><path d="M644.13,371.34a70.42,70.42,0,0,0,3.12-14.29c.38-4.87-.31-10-2.84-14.14-4.73,9.14-5.2,19.82-.42,28.92" style="fill:#e0e0e0"></path><path d="M660,363.31c5.53-10,16.8-18.06,28.2-19.18-4.4,10.95-16.4,19.41-28.2,19.18" style="fill:#e0e0e0"></path><path d="M656.56,365.27c8.24,1.26,15.25,6.52,23,9.71a10.33,10.33,0,0,0,5.19,1,4.05,4.05,0,0,0,2.54-7.18,11.06,11.06,0,0,0-3.76-2.29c-8.39-3.49-17.38-3.58-26.21-1.46" style="fill:#e0e0e0"></path><path d="M651.79,371.05c1.87.53,2.5,1.5,4,2.76a42.92,42.92,0,0,0,17.41,8.94c.66.16,1.53.23,1.86-.37s-.07-1.16-.45-1.63a23.84,23.84,0,0,0-10.51-7.13c-4-1.5-7.49-3.3-12.29-2.91" style="fill:#e0e0e0"></path><path d="M646.41,336.16a33,33,0,0,0,25.26,8.59,1.78,1.78,0,0,0,1.15-.41c.63-.69-.13-1.76-.87-2.34-7.43-5.79-16.42-8.19-25.54-5.84" style="fill:#e0e0e0"></path><path d="M652.79,333.82a35.19,35.19,0,0,1,31.51-5.2,25,25,0,0,1-15,6.6,47.6,47.6,0,0,1-16.5-1.4" style="fill:#e0e0e0"></path><path d="M650.26,317.79c-.73-7.41-.26-13.26-.77-20.71,0-.59-.17-1.31-.73-1.52-.77-.3-1.42.65-1.67,1.44a23.71,23.71,0,0,0,3.16,20.63" style="fill:#e0e0e0"></path><path d="M649.72,318.61A43.72,43.72,0,0,0,662,306.68c2.42-3.32,4.47-7.3,3.92-11.37a11.75,11.75,0,0,0-8.86,4.4,24.74,24.74,0,0,0-4.51,9.08c-1,3.26-1.67,6.61-2.83,9.82" style="fill:#e0e0e0"></path><path d="M661.78,315.26A99,99,0,0,0,692,297.44c-3.61-1.45-7.74-.58-11.35.87-8.25,3.33-15,8.95-19,16.87" style="fill:#e0e0e0"></path><path d="M653.11,322.66c5.58.61,11.25,1,16.78.08s10.58-3.06,15.66-5.2a1.88,1.88,0,0,0,1.07-.81,1.23,1.23,0,0,0-.39-1.34,3.14,3.14,0,0,0-1.33-.62c-5.53-1.55-11.49-.83-16.93,1a78.83,78.83,0,0,0-14.86,6.88" style="fill:#e0e0e0"></path><path d="M621.27,336.41c-3.81-7.68-3.56-16.64-.27-24.56,2.31,3.53,2.59,8,2.17,12.21s-1.7,8.52-1.78,12.73" style="fill:#e0e0e0"></path><path d="M606.07,328.74a34.26,34.26,0,0,0-25.46,10.85A23.79,23.79,0,0,0,594.55,337a70.94,70.94,0,0,0,12-8" style="fill:#e0e0e0"></path><path d="M595.85,325.33c-4.65-.38-9.12-1-13.59.41a16.31,16.31,0,0,0-10.36,8.78,24.59,24.59,0,0,0,12.74-2.4,74,74,0,0,0,11.21-6.79" style="fill:#e0e0e0"></path><path d="M611,325.48c-4.18-2.74-8.47-5.53-13.34-6.66s-10.51-.3-13.91,3.37c3.94,2.31,8.72,2.59,13.29,2.58s10.17,0,14.48,1.47" style="fill:#e0e0e0"></path><path d="M611,325.7c-7.14-7-9.85-19.62-7-29.22a44.48,44.48,0,0,1,7,29.22" style="fill:#e0e0e0"></path><path d="M630.66,305.82c1.35-3.14,2.29-6.43,3.5-9.62a27.7,27.7,0,0,1,5-8.86,13.2,13.2,0,0,1,8.85-4.59,35.64,35.64,0,0,1-17.18,23.12" style="fill:#e0e0e0"></path><path d="M627.1,310c-2.23-3.07-4.81-7.24-7.83-9.53s-7-3.68-10.66-2.8A24.85,24.85,0,0,0,627.1,310" style="fill:#e0e0e0"></path><path d="M627.81,306.07a52.94,52.94,0,0,1-3.52-11.42A17.88,17.88,0,0,1,626.07,283c3.93,7.42,5.19,15.38,1.94,23.12" style="fill:#e0e0e0"></path><path d="M630.69,283c2.23-7.35,9-12.76,16.23-15.25a6,6,0,0,1,2.84-.42,2.46,2.46,0,0,1,2.1,1.74c.26,1.26-.77,2.38-1.74,3.21A55.13,55.13,0,0,1,630.69,283" style="fill:#e0e0e0"></path><path d="M630.78,277c.28-4.74.57-9.55,2.12-14s4.51-8.71,8.83-10.67c.74,4.78-1.38,9.55-3.92,13.67s-5.62,8-7.15,12.6" style="fill:#e0e0e0"></path><path d="M630.66,280.29c-1.84-5.36-2-12.16-5.24-16.83-2.24-3.26-5.83-5.49-7.76-8.94a13.58,13.58,0,0,0,.45,10.15,29.52,29.52,0,0,0,5.93,8.5c2.38,2.53,4.41,4.44,6.62,7.12" style="fill:#e0e0e0"></path><path d="M630.69,438.09c-.14,0-.26-35.75-.27-79.83s.1-79.84.24-79.84.27,35.74.28,79.84S630.84,438.09,630.69,438.09Z" style="fill:#e0e0e0"></path><path d="M661.93,331a8.21,8.21,0,0,1-1.34.5l-3.7,1.25c-3.12,1.06-7.4,2.6-12,4.5s-9,3.58-11.42,5.73a8.32,8.32,0,0,0-2.3,3c-.35.84-.41,1.35-.46,1.34s0-.13,0-.37a5.71,5.71,0,0,1,.27-1,8.05,8.05,0,0,1,2.24-3.24,19.91,19.91,0,0,1,5-3.07c2-.93,4.18-1.89,6.51-2.85,4.66-1.91,9-3.4,12.14-4.38,1.57-.49,2.86-.85,3.75-1.09A6.36,6.36,0,0,1,661.93,331Z" style="fill:#e0e0e0"></path><path d="M672.17,305.87a2.54,2.54,0,0,1-.38.4l-1.14,1.08c-1.07,1-2.52,2.28-4.29,3.89l-14.25,12.69c-5.56,4.95-10.37,9.68-13.7,13.24-1.67,1.78-3,3.26-3.88,4.28l-1,1.19a2.19,2.19,0,0,1-.39.39,1.93,1.93,0,0,1,.3-.46c.22-.29.54-.71,1-1.24.85-1.08,2.12-2.59,3.76-4.4a178,178,0,0,1,13.63-13.39c5.58-4.94,10.66-9.38,14.35-12.58,1.82-1.55,3.3-2.83,4.39-3.77l1.21-1A2.3,2.3,0,0,1,672.17,305.87Z" style="fill:#e0e0e0"></path><path d="M646.11,329c-.15-.06,1-2.75,2.17-6.14s1.72-6.26,1.87-6.23a21.26,21.26,0,0,1-1.38,6.39,39.92,39.92,0,0,1-1.73,4.3A7,7,0,0,1,646.11,329Z" style="fill:#e0e0e0"></path><path d="M630.73,350.6a6.27,6.27,0,0,1-.86-1l-2.2-2.81c-1.84-2.39-4.39-5.68-7.25-9.28s-5.49-6.84-7.39-9.17c-.9-1.12-1.65-2-2.25-2.78a6.4,6.4,0,0,1-.77-1.06,5.73,5.73,0,0,1,.93.93c.57.62,1.38,1.53,2.37,2.67,2,2.28,4.65,5.48,7.51,9.09s5.37,6.93,7.15,9.38c.88,1.22,1.59,2.21,2.06,2.91A6.22,6.22,0,0,1,630.73,350.6Z" style="fill:#e0e0e0"></path><path d="M623.88,341.8a12.49,12.49,0,0,1-2.87-5.37,15.15,15.15,0,0,1-.65-5.41h.23c-.11.42-.18.64-.22.63s0-.24,0-.66l.23,0a24.7,24.7,0,0,0,.91,5.26A39.7,39.7,0,0,0,623.88,341.8Z" style="fill:#e0e0e0"></path><path d="M615,330.68a9.31,9.31,0,0,0-2-1.16,13.49,13.49,0,0,0-5.56-.45,34.77,34.77,0,0,0-5.6.91,16.79,16.79,0,0,1-2.31.55,8,8,0,0,1,2.21-.9,25.47,25.47,0,0,1,5.66-1.07,12.16,12.16,0,0,1,5.74.62A3.63,3.63,0,0,1,615,330.68Z" style="fill:#e0e0e0"></path><path d="M612.94,328c0,.08-1.17-.47-3.07-1.12a30.8,30.8,0,0,0-15.47-1.18c-2,.35-3.17.72-3.2.64A2.66,2.66,0,0,1,592,326a20.54,20.54,0,0,1,2.32-.65A27.46,27.46,0,0,1,610,326.52a20.67,20.67,0,0,1,2.19,1C612.69,327.79,613,328,612.94,328Z" style="fill:#e0e0e0"></path><path d="M630.66,316.59a64,64,0,0,1-2.24-7.78,63.25,63.25,0,0,1-1.74-7.9,62.76,62.76,0,0,1,2.24,7.77A62.77,62.77,0,0,1,630.66,316.59Z" style="fill:#e0e0e0"></path><path d="M630.8,316.59a37.14,37.14,0,0,0-2.48-4.66,20.71,20.71,0,0,0-3.65-3.77,3.5,3.5,0,0,1,1.41.73,11.25,11.25,0,0,1,2.66,2.74A10.26,10.26,0,0,1,630.8,316.59Z" style="fill:#e0e0e0"></path><path d="M630.69,419c-.05,0-.16-.85-.56-2.37a34.07,34.07,0,0,0-2.39-6.19c-2.47-5.05-7-11.45-12.67-17.86-2.83-3.23-5.58-6.28-7.91-9.2a64.34,64.34,0,0,1-5.65-8.15,39.19,39.19,0,0,1-2.85-6.05c-.26-.75-.46-1.33-.56-1.73a3,3,0,0,1-.15-.62s.31.82.9,2.28a43.3,43.3,0,0,0,3,5.94,67.55,67.55,0,0,0,5.71,8c2.33,2.89,5.08,5.93,7.92,9.16,5.72,6.43,10.21,12.91,12.61,18a30.73,30.73,0,0,1,2.26,6.3c.16.77.27,1.38.31,1.79A2.73,2.73,0,0,1,630.69,419Z" style="fill:#e0e0e0"></path><path d="M658.92,387.15a12.16,12.16,0,0,1-1.48.83,33.36,33.36,0,0,0-3.83,2.54,42.82,42.82,0,0,0-5,4.6c-1.77,1.86-3.59,4-5.45,6.36-3.72,4.66-7.2,8.79-9.28,12.09-1.06,1.63-1.83,3-2.33,4a11.51,11.51,0,0,1-.82,1.48,2.38,2.38,0,0,1,.14-.41c.11-.27.26-.67.5-1.16a36.49,36.49,0,0,1,2.2-4.09c2-3.37,5.47-7.56,9.18-12.21,1.87-2.33,3.71-4.51,5.51-6.37a40,40,0,0,1,5.17-4.56,25.89,25.89,0,0,1,4-2.42c.49-.25.89-.4,1.15-.52A2.29,2.29,0,0,1,658.92,387.15Z" style="fill:#e0e0e0"></path><path d="M659.47,397.5a22,22,0,0,1-3.12.45,41.3,41.3,0,0,0-7.42,1.46,22.41,22.41,0,0,0-6.64,3.48c-1.53,1.19-2.25,2.17-2.32,2.11s.12-.29.46-.72a12.16,12.16,0,0,1,1.63-1.67,20.09,20.09,0,0,1,6.71-3.69,33.15,33.15,0,0,1,7.54-1.33A17,17,0,0,1,659.47,397.5Z" style="fill:#e0e0e0"></path><path d="M640.88,403.86c-.16-.09,1.25-2.24,2.34-5.14s1.27-5.48,1.45-5.45a5,5,0,0,1,0,1.68,18,18,0,0,1-.91,3.95,19.18,19.18,0,0,1-1.82,3.62C641.33,403.4,640.94,403.9,640.88,403.86Z" style="fill:#e0e0e0"></path><path d="M668.06,359.39a2.79,2.79,0,0,1-.5.26l-1.47.67c-.64.28-1.42.62-2.3,1.09s-1.92.92-3,1.57l-1.71,1c-.59.34-1.17.74-1.79,1.13-1.26.77-2.52,1.7-3.87,2.66a66.25,66.25,0,0,0-14.87,15.39c-.91,1.38-1.81,2.67-2.53,4-.37.63-.75,1.23-1.07,1.83l-.91,1.74c-.61,1.1-1,2.14-1.47,3s-.75,1.69-1,2.34l-.61,1.49a2.87,2.87,0,0,1-.25.51,1.91,1.91,0,0,1,.15-.54l.52-1.53c.23-.67.53-1.47.94-2.39s.81-2,1.4-3.08l.89-1.77c.31-.61.69-1.22,1-1.86.71-1.3,1.6-2.61,2.51-4a64.11,64.11,0,0,1,15-15.5c1.36-.95,2.64-1.89,3.92-2.64.63-.38,1.22-.78,1.82-1.11l1.74-.95c1.09-.63,2.13-1.08,3-1.51s1.7-.77,2.35-1,1.12-.42,1.51-.58A2.29,2.29,0,0,1,668.06,359.39Z" style="fill:#e0e0e0"></path><path d="M645.72,374.35a3.76,3.76,0,0,1,1.23-1.83,7.82,7.82,0,0,1,4.95-1.9,13.65,13.65,0,0,1,5.21,1,7.69,7.69,0,0,1,2,1A12.1,12.1,0,0,1,657,372a15.85,15.85,0,0,0-5.07-.85,8,8,0,0,0-4.73,1.66A16,16,0,0,0,645.72,374.35Z" style="fill:#e0e0e0"></path><path d="M642.38,377.8a18.65,18.65,0,0,0,1.41-4.57,18.21,18.21,0,0,0-.32-4.78,3,3,0,0,1,.59,1.33,9.57,9.57,0,0,1-.8,6.86C642.82,377.43,642.43,377.83,642.38,377.8Z" style="fill:#e0e0e0"></path><path d="M606,424.16c.77,13.66,4.88,27.55,11.22,41.6h27.53c6-13.91,9.87-27.78,10.55-41.6Z" style="fill:#e0e0e0"></path><path d="M650.85,446.26c0,.14-9.07.26-20.25.26s-20.25-.12-20.25-.26,9.07-.26,20.25-.26S650.85,446.12,650.85,446.26Z" style="fill:#fafafa"></path><path d="M650.23,451.21c0,.14-8.5.26-19,.26s-19-.12-19-.26,8.5-.26,19-.26S650.23,451.07,650.23,451.21Z" style="fill:#fafafa"></path><path d="M617.67,433.13a77.43,77.43,0,0,1,0,12.68,77.43,77.43,0,0,1,0-12.68Z" style="fill:#fafafa"></path><path d="M632.42,433.13a83,83,0,0,1,0,13.13,83,83,0,0,1,0-13.13Z" style="fill:#fafafa"></path><path d="M646.27,433a86.46,86.46,0,0,1,0,13.4,86.46,86.46,0,0,1,0-13.4Z" style="fill:#fafafa"></path><path d="M654.44,433.13c0,.14-10.64.25-23.75.25s-23.75-.11-23.75-.25,10.63-.26,23.75-.26S654.44,433,654.44,433.13Z" style="fill:#fafafa"></path><path d="M717.87,188.47a3.61,3.61,0,0,1,2.73,4.32l-.67,3-6.18,27a2.39,2.39,0,0,1-2.85,1.81l-61.76-14.15a2.38,2.38,0,0,1-1.81-2.72l5.82-35.14a2.38,2.38,0,0,1,2.88-2l14,3.2a5.68,5.68,0,0,1,3.3,2.15l2.32,3.11Z" style="fill:#e0e0e0"></path><rect x="648.63" y="184.9" width="69.23" height="41.78" transform="translate(63.19 -147.34) rotate(12.9)" style="fill:#f5f5f5"></rect><path d="M648,180.13l-4.58,43.65a1.55,1.55,0,0,0,1.18,1.66l65.76,15.06a1.53,1.53,0,0,0,1.8-1.05l13-41.71a1.53,1.53,0,0,0-1.11-2l-74.23-17A1.54,1.54,0,0,0,648,180.13Z" style="fill:#ebebeb"></path><path d="M94.59,143.49A2.87,2.87,0,0,1,97,146.74c-.14,1-.28,2-.35,2.41l-3.21,21.73a1.88,1.88,0,0,1-2.14,1.6L41.6,165.13a1.89,1.89,0,0,1-1.6-2l2.42-28.15a1.89,1.89,0,0,1,2.16-1.72l11.24,1.66a4.57,4.57,0,0,1,2.75,1.5l2,2.31Z" style="fill:#e0e0e0"></path><rect x="40.82" y="142.77" width="54.91" height="33.14" transform="translate(24.05 -8.27) rotate(8.41)" style="fill:#f5f5f5"></rect><path d="M38.78,141.23,37.87,176a1.22,1.22,0,0,0,1,1.24l52.94,7.83a1.21,1.21,0,0,0,1.36-.94l7.72-33.79a1.21,1.21,0,0,0-1-1.48l-59.76-8.84A1.22,1.22,0,0,0,38.78,141.23Z" style="fill:#ebebeb"></path><path d="M696.12,105.25,658.35,117a4.94,4.94,0,0,1-6.19-3.25l-16.3-52.28a5,5,0,0,1,3.26-6.2l24-7.46,24.49,13.33,11.81,37.89A5,5,0,0,1,696.12,105.25Z" style="fill:#ebebeb"></path><path d="M663.07,47.83l4.58,14.71a4.62,4.62,0,0,0,5.77,3l14.14-4.41Z" style="fill:#e0e0e0"></path><path d="M664.3,62.93c.06.19-3.81,1.56-8.63,3.06s-8.79,2.57-8.84,2.38,3.8-1.56,8.63-3.06S664.24,62.74,664.3,62.93Z" style="fill:#fafafa"></path><path d="M678.18,67.73c.05.19-6.34,2.35-14.28,4.82s-14.42,4.33-14.48,4.14,6.33-2.35,14.27-4.82S678.12,67.54,678.18,67.73Z" style="fill:#fafafa"></path><path d="M682.93,73.87c.06.19-6.91,2.53-15.57,5.22s-15.72,4.74-15.78,4.55,6.91-2.53,15.57-5.23S682.87,73.68,682.93,73.87Z" style="fill:#fafafa"></path><path d="M685,80.42c.06.19-6.91,2.53-15.56,5.23s-15.72,4.73-15.78,4.54,6.91-2.53,15.56-5.23S684.91,80.23,685,80.42Z" style="fill:#fafafa"></path><path d="M687,87c.05.19-6.92,2.53-15.57,5.23s-15.72,4.73-15.78,4.54,6.91-2.53,15.57-5.22S687,86.78,687,87Z" style="fill:#fafafa"></path><path d="M689.06,93.53c.06.19-6.91,2.53-15.57,5.22s-15.72,4.74-15.78,4.55,6.91-2.53,15.57-5.23S689,93.34,689.06,93.53Z" style="fill:#fafafa"></path></g><g id="freepik--Device--inject-213"><path d="M601.82,48.15H129.63a14.74,14.74,0,0,0-14.74,14.74V396.41a14.74,14.74,0,0,0,14.74,14.74H310.86s11.52,35.65-24.21,54.1H456.1s-40.34-13.84-30-54.1h175.7a14.74,14.74,0,0,0,14.73-14.74V62.89A14.74,14.74,0,0,0,601.82,48.15Z" style="fill:#455a64"></path><path d="M372,376.08c6.42,9.18-3.63,19.23-12.81,12.81a3.29,3.29,0,0,1-.79-.79c-6.41-9.18,3.63-19.22,12.81-12.81A3.12,3.12,0,0,1,372,376.08Z" style="fill:#263238"></path><path d="M132.72,54.26h466a9.7,9.7,0,0,1,9.7,9.7V350.14a0,0,0,0,1,0,0H123a0,0,0,0,1,0,0V64A9.7,9.7,0,0,1,132.72,54.26Z" style="fill:#fff"></path><path d="M132.17,54.26H600.92a7.52,7.52,0,0,1,7.52,7.52V78.85a0,0,0,0,1,0,0H123a0,0,0,0,1,0,0V63.41A9.15,9.15,0,0,1,132.17,54.26Z" style="fill:#ebebeb"></path><path d="M141.89,67.07a3.41,3.41,0,1,1-3.41-3.41A3.41,3.41,0,0,1,141.89,67.07Z" style="fill:#263238"></path><path d="M152.05,67.07a3.41,3.41,0,1,1-3.41-3.41A3.41,3.41,0,0,1,152.05,67.07Z" style="fill:#263238"></path><path d="M161.72,67.07a3.41,3.41,0,1,1-3.41-3.41A3.41,3.41,0,0,1,161.72,67.07Z" style="fill:#263238"></path><path d="M517.4,411.2c0,.16-67.19.28-150.06.28s-150.08-.12-150.08-.28,67.18-.28,150.08-.28S517.4,411,517.4,411.2Z" style="fill:#263238"></path><path d="M576.79,175.88s0-.49,0-1.43,0-2.34,0-4.16c0-3.65,0-9-.06-15.87,0-13.73-.06-33.5-.1-57.74l.2.2-131.86.06h0l.26-.26c0,28.05,0,54.83,0,79.2l-.24-.24,94.88.12,27.22.06,7.25,0,1.87,0h.65l-.62,0h-1.84l-7.21,0L540,176l-95,.12h-.24v-.24c0-24.37,0-51.15,0-79.2v-.26h.27l131.86.06h.2v.2c0,24.29-.08,44.11-.1,57.87,0,6.85,0,12.18-.06,15.82,0,1.8,0,3.18,0,4.12S576.79,175.88,576.79,175.88Z" style="fill:#263238"></path><path d="M258.21,349.46c-.14,0-.26-60.58-.26-135.3s.12-135.31.26-135.31.27,60.57.27,135.31S258.36,349.46,258.21,349.46Z" style="fill:#263238"></path><rect x="156.2" y="124.72" width="82.33" height="13.89" style="fill:#e0e0e0"></rect><path d="M522.94,167.42l-41.1-.06a3.62,3.62,0,0,1-3.61-3.62l.08-55.37a3.62,3.62,0,0,1,3.62-3.61l28.74,0,15.95,15.57-.06,43.44A3.61,3.61,0,0,1,522.94,167.42Z" style="fill:#FF725E"></path><g style="opacity:0.30000000000000004"><path d="M510.67,104.66v11a4.91,4.91,0,0,0,4.91,4.93l11-.23Z" style="fill:#fff"></path></g><path d="M516.79,156.47a3.09,3.09,0,0,1,0-.52c0-.36,0-.85,0-1.46,0-1.31,0-3.16,0-5.5,0-4.74-.05-11.45-.09-19.49l.23.23h-28l.26-.25h0v3.66c0,1.21,0,2.41,0,3.6,0,2.37,0,4.7,0,7,0,4.53,0,8.81,0,12.74l-.23-.22,20.25.14,5.72.07,1.53,0,.54,0a2.83,2.83,0,0,1-.49,0l-1.48,0-5.68,0-20.39.09h-.22v-.23c0-3.93,0-8.21,0-12.74v-7c0-1.18,0-2.38,0-3.6v-3.65h0l.26-.27,28,.08h.22v.22c-.06,8.1-.11,14.86-.14,19.63,0,2.32,0,4.16-.07,5.45,0,.6,0,1.07,0,1.42A2.56,2.56,0,0,1,516.79,156.47Z" style="fill:#fff"></path><path d="M502.5,156.77c-.14,0-.25-6-.24-13.48s.14-13.49.28-13.49.26,6,.24,13.49S502.65,156.77,502.5,156.77Z" style="fill:#fff"></path><path d="M516.69,149.86c0,.15-6.3.25-14.07.24s-14.07-.13-14.07-.28,6.3-.25,14.07-.24S516.69,149.72,516.69,149.86Z" style="fill:#fff"></path><path d="M517,143c0,.14-6.3.25-14.07.24s-14.07-.14-14.07-.28,6.3-.26,14.07-.24S517,142.84,517,143Z" style="fill:#fff"></path><path d="M516.82,136.11c0,.14-6.25.25-14,.24s-14-.14-14-.28,6.25-.25,14-.24S516.82,136,516.82,136.11Z" style="fill:#fff"></path><path d="M583.08,167.39H543.52a5,5,0,0,1-4.95-4.95V107.69a5,5,0,0,1,4.95-5h25.09l19.42,20v39.68A5,5,0,0,1,583.08,167.39Z" style="fill:#455a64"></path><path d="M568.61,102.74v15.41a4.6,4.6,0,0,0,4.6,4.6H588Z" style="fill:#455a64"></path><g style="opacity:0.2"><path d="M568.81,119.5a5.13,5.13,0,0,0,4.06,5l.49.11c1.93.34,14.67,2.61,14.67,2.32v-4.14H573.21S569.51,122.63,568.81,119.5Z"></path></g><g style="opacity:0.30000000000000004"><path d="M568.61,102.74v15.41a4.6,4.6,0,0,0,4.6,4.6H588Z" style="fill:#fff"></path></g><path d="M565.29,117.52c0,.2-4.09.36-9.15.36s-9.15-.16-9.15-.36,4.1-.36,9.15-.36S565.29,117.32,565.29,117.52Z" style="fill:#fafafa"></path><path d="M577.11,126.23c0,.2-6.74.36-15.06.36s-15.06-.16-15.06-.36,6.74-.35,15.06-.35S577.11,126,577.11,126.23Z" style="fill:#fafafa"></path><path d="M579.83,133.51c0,.2-7.36.36-16.42.36s-16.42-.16-16.42-.36,7.35-.36,16.42-.36S579.83,133.31,579.83,133.51Z" style="fill:#fafafa"></path><path d="M579.83,140.37c0,.2-7.36.36-16.42.36s-16.42-.16-16.42-.36,7.35-.35,16.42-.35S579.83,140.18,579.83,140.37Z" style="fill:#fafafa"></path><path d="M579.83,147.24c0,.2-7.36.36-16.42.36s-16.42-.16-16.42-.36,7.35-.36,16.42-.36S579.83,147,579.83,147.24Z" style="fill:#fafafa"></path><path d="M579.83,154.1c0,.2-7.36.36-16.42.36S547,154.3,547,154.1s7.35-.36,16.42-.36S579.83,153.9,579.83,154.1Z" style="fill:#fafafa"></path><rect x="308.99" y="95.79" width="96.33" height="82.94" style="fill:#f5f5f5"></rect><path d="M405.33,178.72s0-.53,0-1.54,0-2.5,0-4.44c0-3.89,0-9.57-.06-16.82,0-14.49-.07-35.19-.11-60.13l.22.22-96.33,0h0l.26-.26c0,30.1,0,58.46,0,82.93l-.23-.23,69.64.12,19.68.06,5.21,0h1.81l-.44,0h-1.32l-5.17,0-19.62.06L309,179h-.23v-.23c0-24.47,0-52.83,0-82.93v-.26H309l96.33,0h.22v.22c-.05,25-.09,45.75-.12,60.27,0,7.22,0,12.89-.05,16.77,0,1.92,0,3.39,0,4.4S405.33,178.72,405.33,178.72Z" style="fill:#263238"></path><path d="M312.35,178.64c-.1-.11,20.64-18.74,46.31-41.62s46.57-41.34,46.67-41.23S384.69,114.53,359,137.41,312.44,178.74,312.35,178.64Z" style="fill:#263238"></path><path d="M406.14,178.72c-.1.11-21.92-18.37-48.74-41.26S308.9,95.9,309,95.79s21.91,18.36,48.75,41.27S406.23,178.61,406.14,178.72Z" style="fill:#263238"></path><rect x="490.57" y="194.84" width="82.22" height="70.79" style="fill:#ebebeb"></rect><path d="M572.79,265.63s0-.46,0-1.32,0-2.14,0-3.79c0-3.33,0-8.18-.06-14.37,0-12.36-.06-30-.11-51.31l.22.22-82.21,0h0l.26-.26c0,25.69,0,49.9,0,70.79l-.23-.23,59.43.11,16.79.06,4.45,0h1.15l.4,0H571.3l-4.41,0-16.74.06-59.58.12h-.23v-.23c0-20.89,0-45.1,0-70.79v-.26h.27l82.21,0H573v.22c0,21.34-.09,39-.11,51.45,0,6.16,0,11-.06,14.32,0,1.63,0,2.88,0,3.75S572.79,265.63,572.79,265.63Z" style="fill:#263238"></path><path d="M493.43,265.55c-.09-.1,17.6-16,39.51-35.55s39.76-35.27,39.85-35.16-17.59,16-39.51,35.55S493.53,265.66,493.43,265.55Z" style="fill:#263238"></path><path d="M573.48,265.63c-.09.11-18.73-15.65-41.62-35.2S490.48,195,490.57,194.84,509.3,210.49,532.2,230,573.58,265.52,573.48,265.63Z" style="fill:#263238"></path><path d="M146,131.66a4.56,4.56,0,1,1-4.56-4.55A4.56,4.56,0,0,1,146,131.66Z" style="fill:#FF725E"></path><rect x="156.2" y="157.58" width="82.33" height="13.89" style="fill:#e0e0e0"></rect><path d="M146,164.52a4.56,4.56,0,1,1-4.56-4.56A4.56,4.56,0,0,1,146,164.52Z" style="fill:#e0e0e0"></path><rect x="156.2" y="190.43" width="82.33" height="13.89" style="fill:#e0e0e0"></rect><path d="M146,197.38a4.56,4.56,0,1,1-4.56-4.56A4.56,4.56,0,0,1,146,197.38Z" style="fill:#FF725E"></path><rect x="156.2" y="223.29" width="82.33" height="13.89" style="fill:#e0e0e0"></rect><path d="M146,230.23a4.56,4.56,0,1,1-4.56-4.55A4.56,4.56,0,0,1,146,230.23Z" style="fill:#e0e0e0"></path><rect x="156.2" y="256.15" width="82.33" height="13.89" style="fill:#e0e0e0"></rect><path d="M146,263.09a4.56,4.56,0,1,1-4.56-4.56A4.56,4.56,0,0,1,146,263.09Z" style="fill:#e0e0e0"></path><rect x="156.2" y="289" width="82.33" height="13.89" style="fill:#e0e0e0"></rect><path d="M146,296a4.56,4.56,0,1,1-4.56-4.56A4.56,4.56,0,0,1,146,296Z" style="fill:#FF725E"></path><path d="M470.33,265.37s0-.12,0-.34,0-.57,0-1c0-.88,0-2.16,0-3.81,0-3.34,0-8.2-.06-14.37,0-12.33-.07-29.87-.11-50.76l.23.23-59.46,0h0l.26-.26c0,26,0,50.11-.05,70.27l-.21-.22,43.09.11,12.07.06,3.19,0,1.11,0-1.06,0-3.15,0-12,.05-43.23.12h-.22v-.22c0-20.16,0-44.32,0-70.27v-.26h.26l59.46,0h.23v.23c-.05,21-.09,38.54-.12,50.91,0,6.14-.05,11-.06,14.32,0,1.63,0,2.89,0,3.76,0,.41,0,.73,0,1S470.33,265.37,470.33,265.37Z" style="fill:#263238"></path><rect x="410.87" y="280.85" width="59.46" height="59.46" style="fill:#ebebeb"></rect><rect x="484.98" y="283.59" width="91.81" height="59.46" style="fill:#ebebeb"></rect><rect x="303.8" y="195.1" width="91.21" height="70.27" style="fill:#ebebeb"></rect><path d="M392.77,340.31s0-.39,0-1.14,0-1.85,0-3.28c0-2.89,0-7.11-.05-12.51,0-10.8-.06-26.29-.11-45.17l.21.21-91.2.05h0l.26-.26c0,22.16,0,43.21,0,62.1l-.24-.23,65.7.11,18.77.07,5,0h1.74l-.42,0h-1.26l-4.95,0-18.72.06-65.86.12h-.24v-.24c0-18.89,0-39.94,0-62.1V278h.27l91.2.05H393v.21c-.05,18.93-.08,34.47-.11,45.3,0,5.38,0,9.58-.05,12.46,0,1.41,0,2.5,0,3.25S392.77,340.31,392.77,340.31Z" style="fill:#263238"></path><path d="M376.52,210.05a3.37,3.37,0,0,1,3.35,3.39v2.86l-.19,25.78a2.23,2.23,0,0,1-2.23,2.22l-59-.43a2.22,2.22,0,0,1-2.19-2.12l-1.78-33.12a2.22,2.22,0,0,1,2.22-2.35l13.35.09a5.33,5.33,0,0,1,3.44,1.3l2.73,2.36Z" style="fill:#FF725E"></path><g style="opacity:0.30000000000000004"><path d="M376.52,210.05a3.37,3.37,0,0,1,3.35,3.39v2.86l-.19,25.78a2.23,2.23,0,0,1-2.23,2.22l-59-.43a2.22,2.22,0,0,1-2.19-2.12l-1.78-33.12a2.22,2.22,0,0,1,2.22-2.35l13.35.09a5.33,5.33,0,0,1,3.44,1.3l2.73,2.36Z"></path></g><rect x="316.28" y="213.32" width="64.47" height="38.91" transform="translate(1.71 -2.55) rotate(0.42)" style="fill:#f5f5f5"></rect><path d="M311.26,216.54l4.63,40.61a1.42,1.42,0,0,0,1.4,1.27l62.84.46a1.41,1.41,0,0,0,1.42-1.31L385,217a1.43,1.43,0,0,0-1.41-1.56l-70.92-.52A1.43,1.43,0,0,0,311.26,216.54Z" style="fill:#FF725E"></path><rect x="507.45" y="193.97" width="67.74" height="84.73" transform="translate(304.38 777.39) rotate(-89.94)" style="fill:#ebebeb"></rect><path d="M583.72,202.51l-.41,0h-1.19l-4.6,0-17.35,0-61.18,0,.22-.22c0,20.16,0,43.27,0,67.73h0l-.24-.25,84.73.14-.21.2c.07-20.39.13-37.3.16-49.13,0-5.91.06-10.55.07-13.73,0-1.57,0-2.79,0-3.62s0-1.26,0-1.26,0,.41,0,1.22,0,2,0,3.58c0,3.17,0,7.79,0,13.69,0,11.85,0,28.8.05,49.25v.21h-.2l-84.73-.06h-.25v-.24h0c0-24.46.07-47.57.1-67.73v-.22H499l61.33.18,17.29.08,4.56,0h1.55Z" style="fill:#263238"></path><rect x="511.66" y="196.95" width="59.21" height="78.78" transform="translate(304.32 777.34) rotate(-89.94)" style="fill:#FF725E"></rect><polygon points="501.85 265.9 529.4 229.12 546.42 252.17 557.99 239.87 580.62 265.99 501.85 265.9" style="fill:#FF725E"></polygon><path d="M553.68,224.64a6.2,6.2,0,1,1-6.19-6.21A6.2,6.2,0,0,1,553.68,224.64Z" style="fill:#FF725E"></path><g style="opacity:0.2"><polygon points="501.85 265.9 529.4 229.12 546.42 252.17 557.99 239.87 580.62 265.99 501.85 265.9"></polygon></g><g style="opacity:0.2"><path d="M553.68,224.64a6.2,6.2,0,1,1-6.19-6.21A6.2,6.2,0,0,1,553.68,224.64Z"></path></g></g><g id="freepik--Character--inject-213"><rect x="305.99" y="91.97" width="73.52" height="91.96" transform="translate(204.42 480.53) rotate(-89.94)" style="fill:#ebebeb"></rect><path d="M388.76,101.24H387l-5,0-18.83,0-66.39,0,.24-.24c0,21.89,0,47-.06,73.51h0l-.27-.27,92,.15-.22.22c.07-22.13.13-40.48.17-53.32,0-6.41.06-11.45.08-14.9q0-2.57,0-3.93c0-.89,0-1.36,0-1.36s0,.44,0,1.31,0,2.2,0,3.89c0,3.44,0,8.46,0,14.86,0,12.86,0,31.26,0,53.45V175h-.22l-92-.06h-.26v-.27h0c0-26.54.08-51.62.11-73.51v-.23h.24l66.55.19,18.77.08,4.95,0h1.26Z" style="fill:#263238"></path><rect x="310.55" y="95.2" width="64.26" height="85.5" transform="translate(204.36 480.47) rotate(-89.94)" style="fill:#FF725E"></rect><polygon points="299.9 170.03 329.81 130.12 348.27 155.13 360.84 141.78 385.39 170.12 299.9 170.03" style="fill:#FF725E"></polygon><path d="M356.16,125.25a6.73,6.73,0,1,1-6.72-6.74A6.73,6.73,0,0,1,356.16,125.25Z" style="fill:#FF725E"></path><g style="opacity:0.2"><polygon points="299.9 170.03 329.81 130.12 348.27 155.13 360.84 141.78 385.39 170.12 299.9 170.03"></polygon></g><g style="opacity:0.2"><path d="M356.16,125.25a6.73,6.73,0,1,1-6.72-6.74A6.73,6.73,0,0,1,356.16,125.25Z"></path></g><path d="M382.06,175h5.61l.52-7.59.89-6.68L388.86,150l5.4,5.79a5.21,5.21,0,0,1,.87,2.43l.93,20.51.25,8.77-9.85,6.41,0-10.44L384.15,181A8.61,8.61,0,0,1,382.06,175Z" style="fill:#bd8c83"></path><path d="M394.12,167.4a43.33,43.33,0,0,0-4.59-6.36,6.11,6.11,0,0,0-1.94-1.64,2.27,2.27,0,0,0-2.41.22,2.38,2.38,0,0,0-.36,2.7,9.11,9.11,0,0,0,1.78,2.29,4.78,4.78,0,0,1,1.41,2.5,7.83,7.83,0,0,1-.45,2.69A8.82,8.82,0,0,0,390,178" style="fill:#bd8c83"></path><path d="M390,178s-.31-.36-.79-1a9,9,0,0,1-1.42-3.2,8.35,8.35,0,0,1-.22-2.4,12,12,0,0,1,.54-2.73,4.28,4.28,0,0,0,.13-1.61,3.79,3.79,0,0,0-.64-1.57c-.63-.95-1.53-1.66-2.16-2.57a3.17,3.17,0,0,1-.6-1.45,1.77,1.77,0,0,1,2.85-1.73,8,8,0,0,1,2,1.85c.58.67,1.1,1.31,1.56,1.9.93,1.19,1.62,2.19,2.1,2.89a7.8,7.8,0,0,0,.76,1.06,5.77,5.77,0,0,0-.6-1.17,34.67,34.67,0,0,0-2-3c-.45-.61-1-1.27-1.53-2a8.07,8.07,0,0,0-2.11-2,2.91,2.91,0,0,0-1.6-.37,2.07,2.07,0,0,0-1.56.8,3,3,0,0,0,.28,3.43c.69,1,1.59,1.7,2.17,2.57a3.3,3.3,0,0,1,.57,1.36,3.65,3.65,0,0,1-.11,1.43,12,12,0,0,0-.5,2.83,8.72,8.72,0,0,0,1.9,5.72,6.38,6.38,0,0,0,.67.72C389.88,177.94,390,178,390,178Z" style="fill:#896360"></path><path d="M430.33,428.7l4.08,20s-18.94,10.86-18.54,14.63l39-6.53-5.08-31.4Z" style="fill:#FF725E"></path><g style="opacity:0.30000000000000004"><path d="M430.33,428.7l4.08,20s-18.94,10.86-18.54,14.63l39-6.53-5.08-31.4Z"></path></g><path d="M446.2,445a1.61,1.61,0,0,1,1.41,1.63A1.55,1.55,0,0,1,446,448a1.69,1.69,0,0,1-1.48-1.74,1.62,1.62,0,0,1,1.84-1.28" style="fill:#e0e0e0"></path><path d="M454.9,456.79l-.63-3.14-37.19,7.43s-1.61,1.05-1.21,2.24Z" style="fill:#263238"></path><path d="M433.75,448.6c0,.19,1,.11,2,.57s1.68,1.17,1.84,1.07-.3-1.16-1.57-1.69S433.68,448.43,433.75,448.6Z" style="fill:#263238"></path><path d="M429.94,451c0,.2.86.38,1.65,1.08s1.11,1.52,1.3,1.48.13-1.14-.86-2S429.91,450.79,429.94,451Z" style="fill:#263238"></path><path d="M428.43,456.26c.18,0,.29-1-.38-1.94s-1.62-1.23-1.68-1.06.6.64,1.13,1.44S428.24,456.28,428.43,456.26Z" style="fill:#263238"></path><path d="M433.32,443.94c.11.16.94-.25,2-.36s2,.09,2.06-.09-.85-.72-2.13-.58S433.2,443.8,433.32,443.94Z" style="fill:#263238"></path><path d="M443.19,433.28l.7,20.39s-20.48,7.56-20.72,11.34l39.58.06.21-31.81Z" style="fill:#FF725E"></path><path d="M456.13,452a1.61,1.61,0,0,1,1.12,1.85,1.55,1.55,0,0,1-1.82,1.12,1.7,1.7,0,0,1-1.17-2,1.61,1.61,0,0,1,2-1" style="fill:#e0e0e0"></path><path d="M462.75,465.07l-.1-3.21L424.74,463s-1.77.76-1.57,2Z" style="fill:#263238"></path><path d="M443.25,453.47c0,.19,1,.28,1.92.9s1.46,1.44,1.64,1.36-.11-1.19-1.27-1.92S443.21,453.29,443.25,453.47Z" style="fill:#263238"></path><path d="M439.1,455.18c-.05.19.79.52,1.45,1.33s.84,1.69,1,1.68.32-1.1-.51-2.1S439.1,455,439.1,455.18Z" style="fill:#263238"></path><path d="M436.73,460.14c.18.05.45-.92,0-2s-1.4-1.48-1.48-1.32.47.73.86,1.6S436.54,460.12,436.73,460.14Z" style="fill:#263238"></path><path d="M443.61,448.8c.08.18,1-.09,2.06,0s1.94.42,2,.26-.72-.86-2-.93S443.51,448.65,443.61,448.8Z" style="fill:#263238"></path><path d="M468.43,274.47l-.19,20.18-4.9,62.74s2.41,30.48,3.91,47.68C468.55,420,466,446,466,446l-25.19-.23L432.55,359l-5.09-54.12-9-28.19Z" style="fill:#263238"></path><path d="M406.27,280.1l-.2,81.95a34.28,34.28,0,0,0,2.21,12.23l22.65,59.9,1.14,4,15.08-3.51L437.1,275Z" style="fill:#263238"></path><path d="M427.62,294.22a2.47,2.47,0,0,0,0,.4c0,.28,0,.66,0,1.15,0,1,.05,2.53.08,4.44.07,3.85.27,9.42.57,16.31.64,13.76,1.88,32.76,3.9,53.67S436.39,410,438,423.67c.83,6.81,1.5,12.33,2,16.17.24,1.89.43,3.36.56,4.4.06.48.12.86.15,1.14s.07.39.07.39a2.39,2.39,0,0,0,0-.4c0-.28-.06-.66-.11-1.15-.11-1-.27-2.51-.47-4.4-.43-3.85-1.05-9.38-1.82-16.2-1.55-13.68-3.73-32.56-5.71-53.48s-3.32-39.89-4-53.64c-.35-6.88-.6-12.45-.72-16.3-.08-1.9-.14-3.39-.18-4.43,0-.49,0-.87-.06-1.16A1.93,1.93,0,0,0,427.62,294.22Z" style="fill:#455a64"></path><path d="M449.36,280a3,3,0,0,0,.1.93,13.57,13.57,0,0,0,.69,2.44,16.09,16.09,0,0,0,12.46,10.2,13.6,13.6,0,0,0,2.53.19,2.75,2.75,0,0,0,.92-.09c0-.08-1.32,0-3.39-.43a16.68,16.68,0,0,1-12.21-10C449.64,281.26,449.45,279.94,449.36,280Z" style="fill:#455a64"></path><path d="M426.12,283.57a1.3,1.3,0,1,0,1.31-1.29A1.3,1.3,0,0,0,426.12,283.57Z" style="fill:#455a64"></path><path d="M405.85,293.6a8.33,8.33,0,0,0,1.79-1.65,19.91,19.91,0,0,0,3.22-4.93,20.16,20.16,0,0,0,1.64-5.65,8.16,8.16,0,0,0,.08-2.43c-.08,0-.14.92-.41,2.38a23.34,23.34,0,0,1-4.78,10.41C406.46,292.89,405.8,293.54,405.85,293.6Z" style="fill:#455a64"></path><path d="M421,176.46s-7,5.63-9.71,11.92a137.06,137.06,0,0,1-8.07,14.88l-5.41-18.32-13.69,6.81s4.73,28.75,5.81,32.11c1.48,4.65,4.91,8.79,10.16,8.21s8.32-3,11.69-8l4.52-8.49Z" style="fill:#FF725E"></path><path d="M455.1,163.84s19.88,9.4,24.1,15.1c5.12,6.92-8.35,29.52-9.31,35.09-.47,2.67-3.43,22.76-1.61,38.53a270.6,270.6,0,0,1,1.71,31.6l-63.72-4.06c-.19-11.1,2.54-19.71,4.21-33.83l4-46.06L421,176.46l9.76-4.32Z" style="fill:#FF725E"></path><path d="M415.52,192.43a1.59,1.59,0,0,0-.1.48c-.06.38-.12.85-.2,1.41-.17,1.22-.38,3-.63,5.19-.5,4.38-1.13,10.45-1.72,17.16s-1,12.79-1.3,17.19c-.14,2.2-.23,4-.28,5.22,0,.57,0,1-.05,1.42a2.38,2.38,0,0,0,0,.5,1.68,1.68,0,0,0,.09-.49c0-.38.08-.85.14-1.42.11-1.3.26-3.06.44-5.2.38-4.47.89-10.5,1.45-17.18s1.16-12.7,1.57-17.16c.19-2.15.35-3.91.47-5.21,0-.57.08-1,.11-1.42A1.53,1.53,0,0,0,415.52,192.43Z" style="fill:#263238"></path><path d="M463.53,196.3c.09,0,0-1.32.38-3.39a16.63,16.63,0,0,1,9.72-12.29c1.92-.84,3.23-1.06,3.21-1.15a3.14,3.14,0,0,0-.92.11,13.54,13.54,0,0,0-2.42.72,15.95,15.95,0,0,0-9.94,12.56,13.49,13.49,0,0,0-.14,2.52A3.19,3.19,0,0,0,463.53,196.3Z" style="fill:#263238"></path><path d="M421.62,250.5a6.66,6.66,0,0,0,1.24-.2,29.75,29.75,0,0,0,3.3-.88,40.8,40.8,0,0,0,4.73-1.88,44.1,44.1,0,0,0,5.4-3.09,43.09,43.09,0,0,0,4.86-3.9,39,39,0,0,0,3.48-3.7,31,31,0,0,0,2-2.76,5.58,5.58,0,0,0,.64-1.08c-.08,0-1.07,1.44-2.95,3.61a42.89,42.89,0,0,1-3.52,3.6,43.09,43.09,0,0,1-10.15,6.91,45.91,45.91,0,0,1-4.64,2C423.34,250,421.59,250.41,421.62,250.5Z" style="fill:#263238"></path><g style="opacity:0.30000000000000004"><path d="M466.74,209.59c4.51,24.33,2.86,50.14-3,74.17l-1.63-.11C460.34,259,462.36,233.93,466.74,209.59Z"></path></g><path d="M465.75,288.57l-.38,5.56s-4.23,2.3-5.73,3.88-5.83,9.95-5.83,9.95a2.34,2.34,0,0,0,3,.16,35.32,35.32,0,0,0,3.07-4.46h0a2.39,2.39,0,0,1,2.84,2.84c-.53,2.49-1.14,5.39-1.15,5.78s-2.44,2.81-4.28,4.55a1.59,1.59,0,0,0,1.34,2.72.74.74,0,0,0,.37-.2s-.17,2.65,3.43.48c0,0,3.23.73,4.78-1.13,0,0,4-.62,5.36-1.79s4.34-13.21,4.34-13.21l1.63-12.8Z" style="fill:#bd8c83"></path><path d="M466.4,307.8a7.69,7.69,0,0,1,0,2.18,11.39,11.39,0,0,1-1.49,5,10.13,10.13,0,0,1-4,3.35,7.16,7.16,0,0,1-2,.82,9.4,9.4,0,0,1,1.78-1.17,11.35,11.35,0,0,0,3.71-3.31,13,13,0,0,0,1.57-4.8A9.7,9.7,0,0,1,466.4,307.8Z" style="fill:#896360"></path><path d="M469.16,309.21a4.19,4.19,0,0,1,.09,2,14.49,14.49,0,0,1-.37,2.13,6.78,6.78,0,0,1-1.09,2.45,11.66,11.66,0,0,1-2,1.77l-1.69,1.24a6.28,6.28,0,0,1-1.65,1c-.05-.06.49-.57,1.4-1.35.45-.39,1-.86,1.62-1.35a12.74,12.74,0,0,0,1.84-1.71,6.59,6.59,0,0,0,1-2.24c.22-.76.37-1.46.48-2.05C469.08,310,469.08,309.22,469.16,309.21Z" style="fill:#896360"></path><path d="M472.21,311.1c.22,0-.3,2.2-1.09,4.73a2.18,2.18,0,0,1-.59.91,7.88,7.88,0,0,1-.69.63,8.6,8.6,0,0,1-1.29.87c-.78.43-1.33.53-1.36.46s.46-.3,1.15-.8a13.1,13.1,0,0,0,1.16-.93c.21-.19.43-.39.63-.61a1.85,1.85,0,0,0,.46-.7c.39-1.29.79-2.42,1.08-3.25A5.65,5.65,0,0,1,472.21,311.1Z" style="fill:#896360"></path><path d="M479.2,178.94s7.83,9.4,8,17.17,2.64,58,2.64,58l-10,42-17.18-4L468,247.86l-1.24-38.27Z" style="fill:#FF725E"></path><path d="M479.83,296.09a1.31,1.31,0,0,0-.29-.1l-.89-.23-3.42-.86-12.54-3,.14.21,4.3-33.41c.38-3.05.76-6,1.12-8.9v0c-.41-12-.77-22.6-1-30.21-.15-3.75-.27-6.78-.35-8.91-.05-1-.09-1.81-.12-2.39,0-.25,0-.46,0-.62a.58.58,0,0,0,0-.21.85.85,0,0,0,0,.21v.62q0,.87,0,2.4c.05,2.13.13,5.15.21,8.91.22,7.62.53,18.19.87,30.21v0c-.37,2.87-.75,5.86-1.14,8.91-1.6,12.84-3.06,24.57-4.17,33.42l0,.17.16,0,12.59,2.88,3.43.75.9.19A1.88,1.88,0,0,0,479.83,296.09Z" style="fill:#263238"></path><g style="opacity:0.30000000000000004"><path d="M439,251.73a56.47,56.47,0,0,1-20.93,4.62c1.12,1.63,3.2,2,5.17,2.1a16,16,0,0,0,5.77-.65c3.61-1.17,7.85-3,10-6.07"></path></g><g style="opacity:0.30000000000000004"><path d="M403.23,203.3a44.31,44.31,0,0,1,.55,14.07,2.91,2.91,0,0,1-.56,1.63,1,1,0,0,1-1.52.11,1.58,1.58,0,0,1-.05-1.41,41.72,41.72,0,0,0,1.58-14.4"></path></g><path d="M413.63,126.37c.9-2.16,3.43-3.79,3.59-4.47.43-1.79-1.15-3.69-.61-5.44,1.28-4.12,4.63-3.64,4.63-3.64,1.49-1.87,3.51-4.34,6.83-5.26,3.61-1,8.93-1.78,12.18.06s5.65,3.07,6.75,6.65L424.85,154.8c-2.63-1.17-4.31-3.82-5.32-6.52s-1.5-5.57-2.61-8.23c-.83-2,0-5.17-1.82-6.32C412.84,132.28,412.8,128.35,413.63,126.37Z" style="fill:#263238"></path><path d="M421.13,129.85a17.59,17.59,0,0,1,17-16.77l.91,0c9.84.24,15.14,8.73,14.62,18.56l1.4,32.23-16.42,11.45c-5.55,4.31-7.85,1-7.92-3.15h0l-.16-9.21s-9.49-1.15-9.93-10.58C420.4,147.79,420.73,138.37,421.13,129.85Z" style="fill:#bd8c83"></path><path d="M424.18,137.91a1.36,1.36,0,0,0,1.35,1.32,1.29,1.29,0,0,0,1.34-1.27,1.34,1.34,0,0,0-1.34-1.31A1.29,1.29,0,0,0,424.18,137.91Z" style="fill:#263238"></path><path d="M423.17,134.89c.18.17,1.17-.62,2.62-.66s2.54.64,2.69.46-.11-.39-.58-.72a3.68,3.68,0,0,0-2.16-.58,3.52,3.52,0,0,0-2.08.75C423.23,134.49,423.09,134.82,423.17,134.89Z" style="fill:#263238"></path><path d="M437.23,137.91a1.36,1.36,0,0,0,1.35,1.32,1.29,1.29,0,0,0,1.34-1.27,1.33,1.33,0,0,0-1.34-1.31A1.29,1.29,0,0,0,437.23,137.91Z" style="fill:#263238"></path><path d="M437.22,134.87c.17.17,1.19-.59,2.64-.6s2.52.71,2.68.53-.1-.39-.56-.72a3.66,3.66,0,0,0-2.15-.65,3.54,3.54,0,0,0-2.1.7C437.29,134.47,437.14,134.79,437.22,134.87Z" style="fill:#263238"></path><path d="M432.68,145.12a9.41,9.41,0,0,0-2.37-.34c-.37,0-.72-.09-.79-.34a1.83,1.83,0,0,1,.21-1.11c.31-.91.65-1.86,1-2.86,1.38-4.06,2.37-7.4,2.21-7.46s-1.42,3.2-2.81,7.27l-.95,2.87a2.17,2.17,0,0,0-.15,1.46.9.9,0,0,0,.63.52,2.13,2.13,0,0,0,.63.07A9.44,9.44,0,0,0,432.68,145.12Z" style="fill:#263238"></path><path d="M437.13,129.77c.2.37,1.61,0,3.32-.08s3.15.2,3.32-.18c.07-.19-.22-.52-.82-.81a5.46,5.46,0,0,0-2.55-.49,5.55,5.55,0,0,0-2.51.69C437.31,129.24,437,129.59,437.13,129.77Z" style="fill:#263238"></path><path d="M423,130.05c.3.32,1.42-.06,2.78-.13s2.52.14,2.77-.21c.11-.17-.08-.5-.59-.79a4.46,4.46,0,0,0-4.48.27C423,129.55,422.84,129.89,423,130.05Z" style="fill:#263238"></path><path d="M446.28,113.6a7.13,7.13,0,0,1-8.31,7.2c-1.6-.26-3.37-1-4.73-.16s-1.47,3.11-2.74,4.25c-1.81,1.63-4.77.18-7.09.91-1.8.57-2.9,2.31-4.08,3.79s-2.95,2.88-4.76,2.37a21.83,21.83,0,0,1,.63-4.83,7.15,7.15,0,0,1,2.68-4c.73-.5,1.6-.81,2.28-1.38,1.48-1.24,1.79-3.35,2.69-5.06a7.86,7.86,0,0,1,5.9-4.06c2.06-.24,4.18.34,6.18-.2,1.47-.4,2.75-1.38,4.25-1.69,2.91-.61,5.66,1.44,7.82,3.5" style="fill:#263238"></path><path d="M437,117.92c1.3-.4,4-1.29,4.65-2.44a8,8,0,0,1,6.9-4.12,6.6,6.6,0,0,1,6,5.12,9.52,9.52,0,0,1,8.26,5.12,11,11,0,0,1-.12,10.26,5.42,5.42,0,0,0-1,2.54c0,1.16.88,2.07,1.51,3,1.7,2.6,1.63,6.2.4,9.08s-2.12,3.9-3.93,4.5c-3.54,1.18-3.94,6.16-5.3,7.56l-2.07-20.4a1.66,1.66,0,0,1-.55.21c-3.5.86-4.07-6-3.32-8a20,20,0,0,1-3.59-3.64,14.86,14.86,0,0,1-1.74-7.07C441.85,119.78,436.43,118.09,437,117.92Z" style="fill:#263238"></path><path d="M451.82,138.31c.16-.08,6.42-2.14,6.44,4.32s-6.48,5.14-6.49,5S451.82,138.31,451.82,138.31Z" style="fill:#bd8c83"></path><path d="M453.74,145.13s.11.08.3.17a1.14,1.14,0,0,0,.84,0,2.78,2.78,0,0,0,1.29-2.5,3.83,3.83,0,0,0-.32-1.61,1.31,1.31,0,0,0-.85-.86.56.56,0,0,0-.66.31c-.09.18,0,.31-.08.32s-.14-.11-.09-.37a.76.76,0,0,1,.25-.41A.87.87,0,0,1,455,140a1.61,1.61,0,0,1,1.18,1,3.88,3.88,0,0,1,.4,1.8,2.93,2.93,0,0,1-1.64,2.8,1.22,1.22,0,0,1-1-.17C453.75,145.29,453.72,145.14,453.74,145.13Z" style="fill:#896360"></path><path d="M430.54,162.93s8.58-1.46,13.53-5.37c0,0-2.51,7.92-13.47,8.33Z" style="fill:#896360"></path><path d="M436.45,146c-.24,0-.19,1.59-1.51,2.77s-3,1.06-3,1.29.39.29,1.11.29a4,4,0,0,0,2.54-1,3.47,3.47,0,0,0,1.16-2.32C436.75,146.34,436.56,146,436.45,146Z" style="fill:#263238"></path><path d="M429.94,136.8c-.05,0,0-.51-.28-1.38a5.68,5.68,0,0,0-2.09-3,5.51,5.51,0,1,0,0,8.82,5.66,5.66,0,0,0,2.09-3c.24-.86.23-1.37.28-1.37s0,.12,0,.37a4.27,4.27,0,0,1-.12,1.05,5.68,5.68,0,0,1-2.07,3.28,5.92,5.92,0,0,1-8.4-1.16,5.94,5.94,0,0,1,0-7.08,5.92,5.92,0,0,1,8.4-1.16,5.69,5.69,0,0,1,2.07,3.27,4.38,4.38,0,0,1,.12,1.06C430,136.67,430,136.8,429.94,136.8Z" style="fill:#455a64"></path><path d="M444.92,136.9c-.06,0,0-.54-.29-1.44a5.89,5.89,0,0,0-2.19-3.17,5.76,5.76,0,1,0,0,9.21,5.89,5.89,0,0,0,2.19-3.17c.25-.9.23-1.44.29-1.43s0,.13,0,.38a4.67,4.67,0,0,1-.12,1.1,6,6,0,0,1-2.16,3.42,6.2,6.2,0,1,1,0-9.81,6,6,0,0,1,2.16,3.42,4.67,4.67,0,0,1,.12,1.1C445,136.76,444.94,136.9,444.92,136.9Z" style="fill:#455a64"></path><path d="M432.93,137.11c-.1.11-.7-.31-1.55-.28s-1.44.43-1.54.33,0-.24.31-.45a2.18,2.18,0,0,1,2.46,0C432.88,136.87,433,137.06,432.93,137.11Z" style="fill:#455a64"></path><path d="M451.41,138.39a9.2,9.2,0,0,1-3.31-.5,13.84,13.84,0,0,1-3.18-1,9.09,9.09,0,0,1,3.31.49A13.41,13.41,0,0,1,451.41,138.39Z" style="fill:#455a64"></path><path d="M464.51,206.14c0,.14-11.17.94-25,1.77s-25,1.39-25,1.25,11.18-.94,25-1.77S464.5,206,464.51,206.14Z" style="fill:#fff"></path><path d="M486.69,201.16a96.22,96.22,0,0,1-10.09.93c-5.58.36-10.11.54-10.12.4a98.4,98.4,0,0,1,10.09-.92A99.84,99.84,0,0,1,486.69,201.16Z" style="fill:#fff"></path><path d="M414.51,203.52a42.69,42.69,0,0,1-9.06-2.81,22.09,22.09,0,0,1,4.61,1.16A21.42,21.42,0,0,1,414.51,203.52Z" style="fill:#fff"></path></g><g id="freepik--Plant--inject-213"><path d="M192,327.86c-9.5-14.53-9.14-35.77,2.21-48.91,3.52-4.07,8.44-7.62,13.81-7.16s9.92,5.18,11.6,10.44,1.09,10.95.11,16.38c-1.38,7.6-3.68,15.38-9,21s-12,11.92-18.77,8.22" style="fill:#FF725E"></path><path d="M196.25,397.31a21.72,21.72,0,0,1,6.05-24.66c2.19-1.78,5-3.16,7.77-2.44s4.64,3.57,5,6.43a17.91,17.91,0,0,1-1.43,8.45c-1.4,3.8-3.29,7.59-6.52,10s-7.74,4.72-10.9,2.2" style="fill:#FF725E"></path><path d="M173.34,392.32c2.61-12.88-4.17-27.09-15.83-33.16-3.62-1.88-8.08-3-11.73-1.17s-5.52,6.43-5.23,10.6,2.3,8,4.51,11.55c3.1,5,6.9,9.79,12.19,12.28s12.36,4.41,16.09-.1" style="fill:#FF725E"></path><path d="M175,357.49c4.55-14.67-3.16-32.47-16-40.89-4-2.61-9-4.43-13.49-2.73s-7.19,6.82-7.33,11.71,1.73,9.58,3.89,14c3,6.14,6.87,12.19,12.74,15.72s15.34,7,20.21,2.23" style="fill:#FF725E"></path><path d="M184.12,429.23a3.73,3.73,0,0,1-.15-.71l-.3-2c-.06-.45-.13-1-.21-1.48s-.21-1.13-.33-1.75c-.24-1.25-.49-2.68-.9-4.23-.19-.78-.39-1.6-.59-2.45s-.5-1.71-.77-2.62c-.49-1.82-1.21-3.7-1.89-5.71A99.9,99.9,0,0,0,166,384c-1.3-1.67-2.47-3.32-3.72-4.73l-1.76-2.09-1.71-1.85c-1.07-1.2-2.12-2.19-3-3.08L154.49,371l-1.12-1-1.54-1.38a3.39,3.39,0,0,1-.51-.52,2.72,2.72,0,0,1,.59.42l1.62,1.3,1.16.95c.4.38.84.78,1.31,1.21.93.87,2,1.85,3.11,3l1.75,1.83,1.79,2.07c1.28,1.41,2.47,3.05,3.79,4.73A96.12,96.12,0,0,1,179.52,408c.67,2,1.37,3.93,1.85,5.77.25.91.5,1.79.73,2.64s.38,1.68.56,2.47c.38,1.57.6,3,.81,4.27.1.63.2,1.22.29,1.76s.1,1,.15,1.5c.08.84.14,1.52.19,2.06A3.68,3.68,0,0,1,184.12,429.23Z" style="fill:#263238"></path><path d="M183.79,431.86a1.07,1.07,0,0,1,0-.29c0-.23,0-.51.06-.85.07-.8.17-1.89.3-3.26.07-.71.15-1.5.23-2.35s.09-1.81.14-2.81c.08-2,.27-4.31.2-6.85,0-1.27,0-2.6,0-4s-.14-2.82-.21-4.31c-.1-3-.51-6.15-.87-9.49A135.83,135.83,0,0,0,171.26,356c-1.52-3-2.9-5.87-4.45-8.43-.75-1.29-1.43-2.56-2.17-3.73l-2.16-3.36c-1.32-2.17-2.73-4-3.9-5.63-.59-.82-1.12-1.59-1.65-2.28l-1.47-1.85-2-2.56-.52-.68c-.11-.16-.17-.24-.16-.25s.08.06.21.2l.56.64,2.13,2.5c.46.55,1,1.16,1.52,1.82s1.08,1.44,1.69,2.25c1.2,1.64,2.64,3.44,4,5.6l2.2,3.34c.75,1.17,1.44,2.45,2.21,3.73,1.57,2.56,3,5.44,4.51,8.44a144,144,0,0,1,7.95,20.42,145.28,145.28,0,0,1,4.47,21.45c.35,3.35.73,6.53.81,9.53.06,1.5.18,2.94.18,4.33s0,2.72,0,4c0,2.55-.18,4.85-.29,6.87-.07,1-.11,1.95-.19,2.81s-.2,1.64-.29,2.35c-.17,1.38-.31,2.46-.42,3.26-.05.34-.09.61-.12.84A.9.9,0,0,1,183.79,431.86Z" style="fill:#263238"></path><path d="M208.52,289.34a1.84,1.84,0,0,1-.13.27l-.4.76-1.63,2.9c-.35.63-.77,1.31-1.17,2.09l-1.27,2.56c-.46.92-.95,1.89-1.46,2.93s-1,2.19-1.49,3.36-1.08,2.41-1.61,3.71-1,2.68-1.58,4.09l-.83,2.16c-.25.74-.5,1.5-.76,2.26q-.78,2.29-1.59,4.72c-2,6.51-3.92,13.76-5.53,21.46s-2.66,15.13-3.47,21.9-1.2,12.9-1.34,18.06c-.13,2.58-.16,4.91-.17,7s0,3.81,0,5.25,0,2.51.05,3.32c0,.35,0,.64,0,.87a1,1,0,0,1,0,.3,1.4,1.4,0,0,1,0-.3c0-.23,0-.51-.06-.86,0-.81-.09-1.92-.16-3.32s-.11-3.21-.11-5.26,0-4.39.07-7c.08-5.17.55-11.31,1.21-18.11s1.86-14.23,3.43-22,3.54-15,5.59-21.51c.56-1.61,1.1-3.19,1.62-4.72.27-.76.53-1.52.78-2.26l.85-2.16,1.62-4.09c.54-1.3,1.12-2.53,1.64-3.71s1-2.3,1.54-3.35l1.51-2.92,1.32-2.54c.42-.77.86-1.45,1.22-2.07l1.73-2.85.46-.73C208.45,289.41,208.51,289.33,208.52,289.34Z" style="fill:#263238"></path><path d="M205.29,378.49a14.9,14.9,0,0,1-1,1.77c-.7,1.11-1.65,2.75-2.77,4.81s-2.35,4.55-3.6,7.38-2.42,6-3.49,9.42-1.83,6.73-2.43,9.76-1,5.8-1.2,8.13-.37,4.22-.42,5.52a13.66,13.66,0,0,1-.17,2,13.17,13.17,0,0,1-.08-2c0-1.32,0-3.22.24-5.56a82.63,82.63,0,0,1,1.06-8.2,93.85,93.85,0,0,1,2.41-9.83,91.53,91.53,0,0,1,3.56-9.47,81.74,81.74,0,0,1,3.74-7.37c1.17-2,2.19-3.65,2.94-4.72A11.54,11.54,0,0,1,205.29,378.49Z" style="fill:#263238"></path><polygon points="165.47 422.69 207.19 422.69 202.14 465.3 170.66 465.3 165.47 422.69" style="fill:#455a64"></polygon><polygon points="166.99 460.7 170.53 465.3 202.14 465.3 205.79 460.85 166.99 460.7" style="fill:#263238"></polygon><path d="M205.57,435.22c0,.17-8.66.31-19.34.31s-19.34-.14-19.34-.31,8.66-.31,19.34-.31S205.57,435.05,205.57,435.22Z" style="fill:#fafafa"></path><path d="M205.57,438.06c0,.17-8.66.31-19.34.31s-19.34-.14-19.34-.31,8.66-.31,19.34-.31S205.57,437.89,205.57,438.06Z" style="fill:#fafafa"></path><path d="M205.05,440.8c0,.18-8.36.32-18.67.32s-18.66-.14-18.66-.32,8.36-.31,18.66-.31S205.05,440.63,205.05,440.8Z" style="fill:#fafafa"></path><path d="M171.84,330.84a1.36,1.36,0,0,1,0,.4c0,.32-.06.7-.1,1.16-.11,1.07-.25,2.5-.43,4.25-.38,3.58-.93,8.53-1.57,14,0,.21-.05.42-.07.61l0,.18h-.18c-5.36.09-10.19.14-13.67.16h-4.12l-1.12,0a1.93,1.93,0,0,1-.39,0s.13,0,.39,0l1.12-.06,4.11-.13c3.49-.09,8.31-.19,13.67-.28l-.2.19c0-.19,0-.4.07-.61.64-5.46,1.24-10.4,1.7-14,.23-1.73.42-3.16.56-4.23.07-.46.12-.83.17-1.15A2.08,2.08,0,0,1,171.84,330.84Z" style="fill:#263238"></path><path d="M162.35,318.09a1.3,1.3,0,0,1,0,.42c0,.32,0,.72,0,1.2,0,1.1,0,2.59,0,4.4-.06,3.71-.16,8.84-.3,14.5,0,.23,0,.46,0,.67v.22l-.22,0a130.61,130.61,0,0,0-14-.31c-1.79.05-3.23.13-4.23.18l-1.15,0a2,2,0,0,1-.4,0s.13,0,.39-.08l1.15-.13c1-.1,2.44-.22,4.23-.32a111.94,111.94,0,0,1,14.07.19l-.22.21c0-.21,0-.44,0-.67.14-5.66.29-10.79.42-14.5.07-1.81.13-3.29.17-4.4,0-.47.05-.87.07-1.19A2.1,2.1,0,0,1,162.35,318.09Z" style="fill:#263238"></path><path d="M151.25,313.75a7,7,0,0,1,.26,1.23l.62,3.35c.54,2.83,1.38,6.74,2.58,11l.12.45-.42-.21-.5-.24a35.89,35.89,0,0,0-11.12-3.25c-1.48-.18-2.69-.25-3.53-.28a9.79,9.79,0,0,1-1.3-.07s.12,0,.34-.05.55,0,1,0a31,31,0,0,1,3.56.14A33.72,33.72,0,0,1,154.09,329l.51.25-.3.24a108.68,108.68,0,0,1-2.46-11.07c-.24-1.42-.4-2.58-.49-3.38A7.17,7.17,0,0,1,151.25,313.75Z" style="fill:#263238"></path><path d="M210.17,391.45c0,.06-1.21-.06-3.15-.14a53.4,53.4,0,0,0-7.59.25c-.6.06-1.19.14-1.75.21l-.2,0,0-.2c-.45-2.52-.83-4.74-1.08-6.34a16.68,16.68,0,0,1-.33-2.57,18.28,18.28,0,0,1,.6,2.52c.32,1.58.75,3.8,1.22,6.32l-.24-.17c.57-.08,1.16-.16,1.76-.22A42.77,42.77,0,0,1,207,391c1,.08,1.77.18,2.31.26A2.74,2.74,0,0,1,210.17,391.45Z" style="fill:#263238"></path><path d="M214.11,383.61c0,.07-1.16-.2-3.05-.43a33.61,33.61,0,0,0-7.41-.08l-1.31.17-.21,0,0-.22c-.27-2.59-.48-4.89-.61-6.54a18.1,18.1,0,0,1-.14-2.67,17.81,17.81,0,0,1,.41,2.64c.21,1.64.48,3.93.75,6.53l-.24-.19,1.33-.17a28.74,28.74,0,0,1,7.49.2c1,.16,1.7.33,2.22.47A3.41,3.41,0,0,1,214.11,383.61Z" style="fill:#263238"></path><path d="M216.94,309.43a2.57,2.57,0,0,1-.41.21l-1.22.54-4.52,1.93-14.94,6.19-.81.33-.19.08-.08-.19-6.32-14.26-1.86-4.32-.48-1.17c-.11-.28-.16-.42-.14-.43a2.85,2.85,0,0,1,.21.39c.15.3.34.68.56,1.15l2,4.26c1.66,3.66,3.92,8.65,6.43,14.21l-.27-.11.81-.33,15-6.08,4.56-1.8,1.25-.47A1.5,1.5,0,0,1,216.94,309.43Z" style="fill:#263238"></path><path d="M220.6,291.4a1.61,1.61,0,0,1-.37.27l-1.1.71-4.07,2.54-13.59,8.29-.22.13-.09-.24-.24-.66c-2.22-6-4.22-11.38-5.7-15.36-.69-1.94-1.26-3.52-1.68-4.68l-.44-1.28a1.73,1.73,0,0,1-.12-.45,2.15,2.15,0,0,1,.2.42q.21.5.51,1.26L195.5,287c1.51,4,3.55,9.37,5.81,15.33l.25.65-.31-.1,13.66-8.18,4.14-2.43,1.14-.64A2.13,2.13,0,0,1,220.6,291.4Z" style="fill:#263238"></path><path d="M219.4,281.79a6.84,6.84,0,0,1-.9.52c-.58.33-1.43.81-2.46,1.44a43.7,43.7,0,0,0-7.56,5.92l-.53.51.18-.71c.18-.75.35-1.53.48-2.34A27.18,27.18,0,0,0,208,276a31.34,31.34,0,0,0-1.07-3.24,8.8,8.8,0,0,1-.45-1.17,5.84,5.84,0,0,1,.6,1.11,24.61,24.61,0,0,1,1.21,3.22,26.21,26.21,0,0,1,.72,11.26c-.14.83-.31,1.63-.5,2.38l-.35-.2a40,40,0,0,1,7.72-5.85c1-.61,1.92-1.06,2.53-1.34A4.4,4.4,0,0,1,219.4,281.79Z" style="fill:#263238"></path><path d="M171.79,375.34a7.17,7.17,0,0,1-.2,1.08c-.14.69-.35,1.69-.58,2.93a72.82,72.82,0,0,0-1.12,9.89v.19h-.19l-.93.05c-4.14.25-7.89.46-10.6.58l-3.21.13a6.53,6.53,0,0,1-1.19,0,7,7,0,0,1,1.18-.16l3.2-.26c2.71-.2,6.45-.45,10.59-.7l.94-.05-.2.2a59.93,59.93,0,0,1,1.26-9.92c.26-1.24.52-2.24.71-2.92A4.78,4.78,0,0,1,171.79,375.34Z" style="fill:#263238"></path><path d="M163.59,363.59a6.79,6.79,0,0,1-.07,1.09c-.09.77-.2,1.76-.34,3-.3,2.51-.75,6-1.28,9.91l0,.17h-.18l-1.34.09c-4.24.28-8.06.72-10.82,1.08l-3.27.44a7.12,7.12,0,0,1-1.21.12,6.49,6.49,0,0,1,1.18-.28c.77-.16,1.88-.36,3.25-.58,2.76-.43,6.59-.92,10.84-1.21l1.35-.08-.2.18c.54-3.91,1-7.39,1.42-9.89.18-1.19.34-2.18.46-3A5,5,0,0,1,163.59,363.59Z" style="fill:#263238"></path><path d="M153.93,358.53c.07,0-.19,1.14-.49,3a54.45,54.45,0,0,0-.67,7.39v.23l-.24,0-.7-.09a66.53,66.53,0,0,0-7.88-.46l-2.39,0a3.87,3.87,0,0,1-.89,0,3.43,3.43,0,0,1,.88-.14c.56-.06,1.38-.12,2.4-.16a50.38,50.38,0,0,1,7.94.34l.7.1-.24.2a43.28,43.28,0,0,1,.81-7.43c.19-.93.37-1.67.51-2.18A3.19,3.19,0,0,1,153.93,358.53Z" style="fill:#263238"></path><path d="M208.91,370.28a37.94,37.94,0,0,1-1.86,4.23,37.12,37.12,0,0,1-2,4.17,31.19,31.19,0,0,1,3.87-8.4Z" style="fill:#263238"></path><path d="M214.15,375.84a41,41,0,0,0-4.74,1,42.87,42.87,0,0,0-4.46,1.89,13.12,13.12,0,0,1,9.2-2.85Z" style="fill:#263238"></path></g><g id="freepik--Floor--inject-213"><path d="M691.27,465.19c0,.14-141.61.26-316.25.26s-316.29-.12-316.29-.26,141.58-.26,316.29-.26S691.27,465,691.27,465.19Z" style="fill:#263238"></path></g></svg>